# xmcd
#
# Track frame offsets:
# 150
# 9525
# 28500
# 46095
# 66510
# 83548
# 95163
# 117655
# 134188
# 143650
#
# Disc length: 2152 seconds
#
#
# Revision: 0
# Processed by: cddbd v1.5.2PL0 Copyright (c) Steve Scherf et al.
# Submitted via: Nero 7, 11, 10, 0 
#
DISCID=8c08660a
DTITLE=The Tailgators - Tore Up
DYEAR=1988
DGENRE=Blues
TTITLE0=Ballad Of Stagger And Lily
TTITLE1=Diggin' And Datin'
TTITLE2=Colinda
TTITLE3=Jungle Rock
TTITLE4=Fatback
TTITLE5=Guitar Boogie Shuffle
TTITLE6=Allon's Rock And Roll
TTITLE7=Don't Do It
TTITLE8=Back Door
TTITLE9=Tore Up
EXTD=
EXTT0=Ballad Of Stagger And Lily
EXTT1=Diggin' And Datin'
EXTT2=Colinda
EXTT3=Jungle Rock
EXTT4=Fatback
EXTT5=Guitar Boogie Shuffle
EXTT6=Allon's Rock And Roll
EXTT7=Don't Do It
EXTT8=Back Door
EXTT9=Tore Up
PLAYORDER=
